<svg xmlns="http://www.w3.org/2000/svg" viewBox="0 0 900 680" role="img" aria-labelledby="title desc">
  <title id="title">Evaluation and field studies</title>
  <desc id="desc">Abstract charts and measurement panels representing impact evaluation.</desc>
  <rect width="900" height="680" fill="#fffdf8"/>
  <rect x="46" y="52" width="808" height="576" fill="#f6f2e8" stroke="#ffcc00" stroke-width="6"/>
  <g fill="#ffffff" stroke="#ded8ce" stroke-width="3">
    <rect x="108" y="122" width="316" height="204" rx="8"/>
    <rect x="476" y="122" width="316" height="204" rx="8"/>
    <rect x="108" y="376" width="684" height="156" rx="8"/>
  </g>
  <g fill="#990000">
    <rect x="156" y="250" width="42" height="42"/>
    <rect x="224" y="214" width="42" height="78"/>
    <rect x="292" y="174" width="42" height="118"/>
    <rect x="360" y="142" width="42" height="150"/>
  </g>
  <polyline points="520,276 582,218 646,244 724,166" fill="none" stroke="#0047ba" stroke-width="10" stroke-linecap="round" stroke-linejoin="round"/>
  <g fill="#c8510c">
    <circle cx="520" cy="276" r="12"/>
    <circle cx="582" cy="218" r="12"/>
    <circle cx="646" cy="244" r="12"/>
    <circle cx="724" cy="166" r="12"/>
  </g>
  <g font-family="Arial, Helvetica, sans-serif" font-weight="800">
    <text x="150" y="452" fill="#990000" font-size="34">EVALUATE</text>
    <text x="150" y="492" fill="#5d6470" font-size="22">accuracy · trust · equity · workflow · outcomes</text>
  </g>
</svg>
